<?xml version="1.0" encoding="utf-8"?>
<!-- Generator: Adobe Illustrator 16.0.0, SVG Export Plug-In . SVG Version: 6.00 Build 0)  -->
<!DOCTYPE svg PUBLIC "-//W3C//DTD SVG 1.1//EN" "http://www.w3.org/Graphics/SVG/1.1/DTD/svg11.dtd">
<svg version="1.1" id="Layer_1" xmlns="http://www.w3.org/2000/svg" xmlns:xlink="http://www.w3.org/1999/xlink" x="0px" y="0px"
	 width="312.12px" height="79.487px" viewBox="0 0 312.12 79.487" enable-background="new 0 0 312.12 79.487" xml:space="preserve">
<g>
	<path fill="#41459C" d="M121.7,0.737h-11.428l-7.949,49.685h7.169l1.348-9.015h9.583l1.348,9.015h7.878L121.7,0.737z
		 M115.596,9.538l3.761,25.126h-7.523L115.596,9.538z"/>
	<path fill="#3954A5" d="M153.209,7.834h12.848V0.737h-20.655v49.685h7.808V29.909h10.078v-7.098h-10.078V7.834z"/>
	<path fill="#3954A5" d="M181.95,50.421h7.808V0.737h-7.808V50.421z"/>
	<path fill="#3954A5" d="M224.25,50.421h8.02V0.737h-6.955v29.74l-8.021-29.74h-9.795v49.685h7.026V14.436L224.25,50.421z"/>
	<path fill="#3954A5" d="M257.178,12.164c0-3.548,1.562-4.897,4.046-4.897c2.483,0,4.045,1.349,4.045,4.897v26.83
		c0,3.549-1.562,4.897-4.045,4.897c-2.484,0-4.046-1.349-4.046-4.897V12.164z M249.37,38.497c0,7.95,4.188,12.492,11.854,12.492
		c7.665,0,11.853-4.542,11.853-12.492V12.661c0-7.95-4.188-12.492-11.853-12.492c-7.666,0-11.854,4.542-11.854,12.492V38.497z"/>
	<path fill="#3954A5" d="M289.752,0.737v7.098h14.124l-14.834,35.631v6.956h22.854v-7.098h-14.834l14.834-35.631V0.737H289.752z"/>
</g>
<g>
	<path fill-rule="evenodd" clip-rule="evenodd" fill="#617FBF" d="M0,79.487c0,0,31.398-26.466,38.806-79.487h18.458
		c0,0-7.091,42.964-31.234,79.487H0z"/>
	<path fill-rule="evenodd" clip-rule="evenodd" fill="#4A56A5" d="M0.946,79.487c0,0,31.756-25.68,71.917-30.28l8.989,16.086
		c0,0-30.819,3.956-46.84,14.194H0.946z"/>
	<path opacity="0.14" fill-rule="evenodd" clip-rule="evenodd" d="M43.928,45.04c5.793-14.281,9.358-27.134,11.333-35.421
		C54.923,6.523,54.644,3.32,54.437,0H38.832c-0.438,3.133-0.961,6.169-1.555,9.117C37.884,17.387,39.527,30.485,43.928,45.04z"/>
	<path opacity="0.1" fill-rule="evenodd" clip-rule="evenodd" d="M54.686,71.109c6.354-1.904,12.642-3.298,17.569-4.246
		c-2.415-4.308-5.065-9.767-7.581-16.441c-6.06,1.137-11.877,2.705-17.362,4.532C49.347,60.301,51.779,65.736,54.686,71.109z"/>
	<path fill-rule="evenodd" clip-rule="evenodd" fill="#575FAB" d="M83.271,79.487c0,0-23.019-23.904-26.496-79.487H39.27
		c0,0-0.931,43.129,22.71,79.487H83.271z"/>
</g>
<g>
	<path fill="#555AA8" d="M312.12,71.476v-0.455l-1.364-0.222v0.755c0,0.273-0.052,0.53-0.155,0.771
		c-0.103,0.24-0.243,0.449-0.421,0.626c-0.178,0.178-0.387,0.318-0.627,0.422s-0.497,0.155-0.771,0.155h-0.909
		c-0.273,0-0.53-0.052-0.771-0.155s-0.449-0.244-0.627-0.422c-0.177-0.177-0.317-0.386-0.421-0.626s-0.155-0.497-0.155-0.771v-2.529
		h6.221v-2.672c0-0.458-0.088-0.891-0.261-1.298c-0.174-0.406-0.412-0.761-0.715-1.064c-0.303-0.303-0.658-0.541-1.064-0.715
		c-0.407-0.174-0.84-0.261-1.298-0.261h-0.909c-0.459,0-0.891,0.087-1.297,0.261c-0.407,0.174-0.762,0.412-1.065,0.715
		c-0.303,0.304-0.541,0.658-0.715,1.064c-0.174,0.407-0.261,0.84-0.261,1.298v5.123c0,0.458,0.087,0.891,0.261,1.298
		c0.174,0.406,0.412,0.761,0.715,1.064c0.304,0.303,0.658,0.541,1.065,0.715c0.406,0.173,0.838,0.261,1.297,0.261h0.909
		c0.458,0,0.891-0.088,1.298-0.261c0.406-0.174,0.762-0.412,1.064-0.715c0.303-0.304,0.541-0.658,0.715-1.064
		C312.032,72.367,312.12,71.934,312.12,71.476L312.12,71.476z M310.756,67.96h-4.856v-1.686c0-0.273,0.052-0.53,0.155-0.771
		s0.244-0.449,0.421-0.626c0.178-0.178,0.387-0.318,0.627-0.422s0.497-0.155,0.771-0.155h0.909c0.273,0,0.53,0.052,0.771,0.155
		s0.449,0.244,0.627,0.422c0.178,0.177,0.318,0.386,0.421,0.626c0.104,0.24,0.155,0.497,0.155,0.771V67.96z"/>
	<path fill="#555AA8" d="M299.818,71.476v-0.455l-1.363-0.222v0.755c0,0.273-0.052,0.53-0.155,0.771s-0.244,0.449-0.422,0.626
		c-0.177,0.178-0.386,0.318-0.626,0.422s-0.497,0.155-0.771,0.155h-0.909c-0.273,0-0.53-0.052-0.771-0.155s-0.449-0.244-0.626-0.422
		c-0.178-0.177-0.318-0.386-0.422-0.626s-0.155-0.497-0.155-0.771v-5.279c0-0.273,0.052-0.53,0.155-0.771s0.244-0.449,0.422-0.626
		c0.177-0.178,0.386-0.318,0.626-0.422s0.497-0.155,0.771-0.155h0.909c0.274,0,0.531,0.052,0.771,0.155s0.449,0.244,0.626,0.422
		c0.178,0.177,0.318,0.386,0.422,0.626s0.155,0.497,0.155,0.771v0.755l1.363-0.222v-0.455c0-0.458-0.087-0.891-0.26-1.298
		c-0.174-0.406-0.412-0.761-0.716-1.064c-0.303-0.303-0.658-0.541-1.064-0.715s-0.839-0.261-1.298-0.261h-0.909
		c-0.459,0-0.891,0.087-1.297,0.261c-0.407,0.174-0.762,0.412-1.064,0.715c-0.304,0.304-0.542,0.658-0.716,1.064
		c-0.174,0.407-0.261,0.84-0.261,1.298v5.123c0,0.458,0.087,0.891,0.261,1.298c0.174,0.406,0.412,0.761,0.716,1.064
		c0.303,0.303,0.657,0.541,1.064,0.715c0.406,0.173,0.838,0.261,1.297,0.261h0.909c0.459,0,0.892-0.088,1.298-0.261
		c0.406-0.174,0.762-0.412,1.064-0.715c0.304-0.304,0.542-0.658,0.716-1.064C299.731,72.367,299.818,71.934,299.818,71.476
		L299.818,71.476z"/>
	<path fill="#555AA8" d="M286.571,74.592v-8.239c0-0.458-0.088-0.891-0.261-1.298c-0.174-0.406-0.412-0.761-0.715-1.064
		c-0.304-0.303-0.658-0.541-1.065-0.715c-0.406-0.174-0.839-0.261-1.297-0.261h-0.344c-0.555,0-0.594,0.124-1.063,0.371
		c-0.47,0.248-0.859,0.583-1.17,1.004l-0.743-1.153h-0.455v11.355h1.364v-8.317c0-0.273,0.052-0.53,0.155-0.771
		s0.244-0.449,0.421-0.626c0.178-0.178,0.387-0.318,0.627-0.422s0.497-0.155,0.771-0.155h0.437c0.273,0,0.53,0.052,0.771,0.155
		s0.449,0.244,0.627,0.422c0.177,0.177,0.317,0.386,0.421,0.626s0.155,0.497,0.155,0.771v8.317H286.571z"/>
	<path fill="#555AA8" d="M273.323,74.592v-8.239c0-0.458-0.088-0.891-0.261-1.298c-0.174-0.406-0.412-0.761-0.715-1.064
		c-0.304-0.303-0.658-0.541-1.064-0.715c-0.407-0.174-0.84-0.261-1.298-0.261h-0.798c-0.459,0-0.893,0.087-1.298,0.261
		c-0.406,0.174-0.762,0.412-1.064,0.715c-0.304,0.304-0.543,0.658-0.715,1.064c-0.174,0.407-0.261,0.84-0.261,1.298v0.111
		l1.363,0.222v-0.411c0-0.273,0.052-0.53,0.155-0.771s0.244-0.449,0.422-0.626c0.178-0.178,0.386-0.318,0.626-0.422
		s0.498-0.155,0.771-0.155h0.798c0.273,0,0.53,0.052,0.771,0.155s0.449,0.244,0.627,0.422c0.178,0.177,0.317,0.386,0.421,0.626
		s0.155,0.497,0.155,0.771v1.753h-2.883c-0.459,0-0.891,0.087-1.298,0.26c-0.406,0.174-0.761,0.412-1.064,0.716
		c-0.303,0.303-0.541,0.658-0.715,1.064s-0.261,0.839-0.261,1.297v0.111c0,0.458,0.087,0.891,0.261,1.298
		c0.174,0.406,0.412,0.761,0.715,1.064c0.304,0.303,0.658,0.541,1.064,0.715c0.407,0.173,0.839,0.261,1.298,0.261h0.344
		c0.555,0,1.064-0.124,1.53-0.371c0.466-0.248,0.854-0.575,1.164-0.981l0.755,1.131H273.323z M271.959,71.554
		c0,0.273-0.052,0.53-0.155,0.771s-0.243,0.449-0.421,0.626c-0.178,0.178-0.387,0.318-0.627,0.422s-0.497,0.155-0.771,0.155h-0.909
		c-0.273,0-0.53-0.052-0.771-0.155s-0.449-0.244-0.627-0.422c-0.177-0.177-0.317-0.386-0.421-0.626s-0.155-0.497-0.155-0.771v-0.478
		c0-0.273,0.052-0.53,0.155-0.771s0.244-0.451,0.421-0.632c0.178-0.182,0.387-0.323,0.627-0.427s0.497-0.155,0.771-0.155h2.883
		V71.554z"/>
	<path fill="#555AA8" d="M260.549,74.592v-8.239c0-0.458-0.088-0.891-0.261-1.298c-0.174-0.406-0.412-0.761-0.715-1.064
		c-0.304-0.303-0.658-0.541-1.064-0.715c-0.407-0.174-0.84-0.261-1.298-0.261h-0.344c-0.555,0-0.594,0.124-1.063,0.371
		c-0.47,0.248-0.859,0.583-1.17,1.004l-0.743-1.153h-0.455v11.355h1.364v-8.317c0-0.273,0.052-0.53,0.155-0.771
		s0.244-0.449,0.422-0.626c0.177-0.178,0.386-0.318,0.626-0.422s0.497-0.155,0.771-0.155h0.437c0.273,0,0.53,0.052,0.771,0.155
		s0.449,0.244,0.627,0.422c0.177,0.177,0.317,0.386,0.421,0.626s0.155,0.497,0.155,0.771v8.317H260.549z"/>
	<path fill="#555AA8" d="M245.529,74.592h1.636V63.578h-1.636V74.592z M246.369,61.215c0.334,0,0.605-0.105,0.818-0.317
		c0.212-0.212,0.317-0.492,0.317-0.84c0-0.334-0.105-0.603-0.317-0.808c-0.213-0.204-0.484-0.306-0.818-0.306
		c-0.332,0-0.604,0.102-0.816,0.306c-0.213,0.205-0.318,0.474-0.318,0.808c0,0.348,0.105,0.628,0.318,0.84
		C245.765,61.11,246.037,61.215,246.369,61.215L246.369,61.215z"/>
	<path fill="#555AA8" d="M241.095,60.528v-1.364h-7.057v15.429h1.431v-6.79h4.669v-1.364h-4.669v-5.91H241.095z"/>
	<path fill="#555AA8" d="M220.005,62.572h-1.258l0.056,1.127c-0.326-0.514-0.732-0.849-1.221-1.005s-1.027-0.234-1.615-0.234
		c-1.666,0-2.671,1.407-3.015,2.328c-0.345,0.923-0.517,2.554-0.517,3.945c0,1.255,0.216,2.731,0.647,3.483
		c0.433,0.754,1.355,1.603,2.771,1.603c0.074,0,0.156,0,0.244,0c0.087,0,0.169-0.006,0.243-0.02
		c0.477-0.012,0.937-0.093,1.381-0.243s0.785-0.457,1.024-0.92v2.674c0,0.988-0.239,2.068-0.714,2.294
		c-0.477,0.226-1.146,0.339-2.01,0.339c-0.739,0-1.12-0.32-1.56-0.774c-0.437-0.452-0.47-0.694-0.508-1.483l-1.221-0.019
		c0,1.264,0.334,1.737,0.873,2.385c0.409,0.488,1.438,0.961,2.564,0.961c1.29,0,2.251-0.216,2.884-0.647s0.948-1.797,0.948-3.149
		V62.572L220.005,62.572z M213.807,68.366v-0.713c0-1.039,0.156-2.216,0.47-2.586c0.313-0.369,0.958-1.5,1.935-1.5
		c1.228,0,1.947,0.308,2.16,0.92c0.213,0.613,0.319,2.853,0.319,3.879c0,0.251-0.007,0.505-0.019,0.761
		c-0.013,0.257-0.031,0.51-0.057,0.761c-0.063,0.738-0.307,2.188-0.732,2.458c-0.426,0.269-0.983,0.403-1.672,0.403
		c-1.177,0-1.872-0.745-2.086-1.29c-0.212-0.545-0.318-1.784-0.318-2.773V68.366L213.807,68.366z"/>
	<path fill="#555AA8" d="M206.611,74.592v-8.239c0-0.458-0.088-0.891-0.261-1.298c-0.173-0.406-0.412-0.761-0.715-1.064
		c-0.303-0.303-0.658-0.541-1.064-0.715s-0.839-0.261-1.298-0.261h-0.344c-0.554,0-0.593,0.124-1.063,0.371
		c-0.47,0.248-0.859,0.583-1.17,1.004l-0.743-1.153H199.5v11.355h1.363v-8.317c0-0.273,0.052-0.53,0.155-0.771
		s0.244-0.449,0.422-0.626c0.178-0.178,0.386-0.318,0.626-0.422c0.241-0.104,0.498-0.155,0.771-0.155h0.436
		c0.273,0,0.531,0.052,0.771,0.155s0.448,0.244,0.626,0.422c0.178,0.177,0.318,0.386,0.422,0.626s0.155,0.497,0.155,0.771v8.317
		H206.611z"/>
	<path fill="#555AA8" d="M192.065,74.592h1.636V63.578h-1.636V74.592z M192.905,61.215c0.334,0,0.606-0.105,0.818-0.317
		c0.211-0.212,0.317-0.492,0.317-0.84c0-0.334-0.106-0.603-0.317-0.808c-0.212-0.204-0.484-0.306-0.818-0.306
		c-0.332,0-0.605,0.102-0.816,0.306c-0.213,0.205-0.318,0.474-0.318,0.808c0,0.348,0.105,0.628,0.318,0.84
		C192.3,61.11,192.573,61.215,192.905,61.215L192.905,61.215z"/>
	<path fill="#555AA8" d="M187.213,74.592v-1.298h-5.249l5.723-8.975V63.71h-7.837v1.297h5.501l-5.723,8.975v0.61H187.213z"/>
	<path fill="#555AA8" d="M174.087,74.592h1.635V63.578h-1.635V74.592z M174.927,61.215c0.333,0,0.605-0.105,0.817-0.317
		s0.318-0.492,0.318-0.84c0-0.334-0.106-0.603-0.318-0.808c-0.212-0.204-0.484-0.306-0.817-0.306s-0.605,0.102-0.817,0.306
		c-0.212,0.205-0.317,0.474-0.317,0.808c0,0.348,0.105,0.628,0.317,0.84S174.594,61.215,174.927,61.215L174.927,61.215z"/>
	<path fill="#555AA8" d="M168.016,74.592V58.691h-1.363v15.901H168.016z"/>
	<path fill="#555AA8" d="M160.718,74.592v-8.239c0-0.458-0.087-0.891-0.261-1.298c-0.174-0.406-0.412-0.761-0.715-1.064
		c-0.304-0.303-0.658-0.541-1.064-0.715c-0.407-0.174-0.84-0.261-1.298-0.261h-0.799c-0.458,0-0.891,0.087-1.297,0.261
		c-0.406,0.174-0.761,0.412-1.064,0.715c-0.303,0.304-0.542,0.658-0.715,1.064c-0.174,0.407-0.26,0.84-0.26,1.298v0.111l1.364,0.222
		v-0.411c0-0.273,0.052-0.53,0.155-0.771s0.244-0.449,0.421-0.626c0.177-0.178,0.386-0.318,0.626-0.422s0.497-0.155,0.771-0.155
		h0.799c0.273,0,0.53,0.052,0.771,0.155s0.449,0.244,0.627,0.422c0.177,0.177,0.317,0.386,0.421,0.626s0.155,0.497,0.155,0.771
		v1.753h-2.883c-0.458,0-0.891,0.087-1.297,0.26c-0.407,0.174-0.761,0.412-1.064,0.716c-0.303,0.303-0.542,0.658-0.715,1.064
		s-0.261,0.839-0.261,1.297v0.111c0,0.458,0.087,0.891,0.261,1.298c0.174,0.406,0.412,0.761,0.715,1.064
		c0.303,0.303,0.658,0.541,1.064,0.715c0.407,0.173,0.839,0.261,1.297,0.261h0.344c0.555,0,1.064-0.124,1.53-0.371
		c0.466-0.248,0.854-0.575,1.164-0.981l0.754,1.131H160.718z M159.354,71.554c0,0.273-0.052,0.53-0.155,0.771
		s-0.244,0.449-0.421,0.626c-0.178,0.178-0.387,0.318-0.627,0.422s-0.497,0.155-0.771,0.155h-0.91c-0.273,0-0.53-0.052-0.771-0.155
		s-0.449-0.244-0.626-0.422c-0.178-0.177-0.318-0.386-0.421-0.626s-0.155-0.497-0.155-0.771v-0.478c0-0.273,0.052-0.53,0.155-0.771
		s0.244-0.451,0.421-0.632c0.177-0.182,0.386-0.323,0.626-0.427s0.497-0.155,0.771-0.155h2.883V71.554z"/>
	<path fill="#555AA8" d="M149.316,74.592v-1.298h-1.242c-0.229,0-0.444-0.042-0.644-0.127c-0.199-0.085-0.373-0.202-0.521-0.35
		s-0.264-0.319-0.349-0.516s-0.127-0.408-0.127-0.638v-7.13h2.41v-1.298h-2.41v-2.949l-1.364,0.222v2.728h-2.041v1.298h2.041v7.063
		c0,0.414,0.08,0.802,0.239,1.164c0.159,0.362,0.373,0.681,0.643,0.954c0.27,0.273,0.587,0.487,0.954,0.643
		c0.366,0.155,0.756,0.233,1.17,0.233H149.316z"/>
	<path fill="#555AA8" d="M137.182,74.592h1.635V63.578h-1.635V74.592z M138.022,61.215c0.333,0,0.605-0.105,0.818-0.317
		c0.211-0.212,0.318-0.492,0.318-0.84c0-0.334-0.106-0.603-0.318-0.808c-0.212-0.204-0.485-0.306-0.818-0.306
		s-0.606,0.102-0.817,0.306c-0.212,0.205-0.318,0.474-0.318,0.808c0,0.348,0.105,0.628,0.318,0.84
		C137.417,61.11,137.689,61.215,138.022,61.215L138.022,61.215z"/>
	<path fill="#555AA8" d="M131.53,62.572h-1.259l0.057,1.127c-0.327-0.514-0.733-0.849-1.221-1.005
		c-0.489-0.156-1.027-0.234-1.615-0.234c-1.666,0-2.671,1.407-3.016,2.328c-0.344,0.923-0.517,2.554-0.517,3.945
		c0,1.255,0.216,2.731,0.648,3.483c0.432,0.754,1.355,1.603,2.771,1.603c0.075,0,0.156,0,0.244,0c0.087,0,0.169-0.006,0.245-0.02
		c0.475-0.012,0.936-0.093,1.38-0.243s0.786-0.457,1.024-0.92v2.674c0,0.988-0.238,2.068-0.714,2.294
		c-0.476,0.226-1.146,0.339-2.01,0.339c-0.739,0-1.12-0.32-1.56-0.774c-0.437-0.452-0.469-0.694-0.507-1.483l-1.221-0.019
		c0,1.264,0.333,1.737,0.874,2.385c0.408,0.488,1.437,0.961,2.564,0.961c1.29,0,2.251-0.216,2.883-0.647
		c0.633-0.432,0.949-1.797,0.949-3.149V62.572L131.53,62.572z M125.331,68.366v-0.713c0-1.039,0.157-2.216,0.47-2.586
		c0.313-0.369,0.958-1.5,1.935-1.5c1.227,0,1.947,0.308,2.161,0.92c0.212,0.613,0.319,2.853,0.319,3.879
		c0,0.251-0.007,0.505-0.019,0.761c-0.013,0.257-0.031,0.51-0.056,0.761c-0.063,0.738-0.307,2.188-0.733,2.458
		c-0.426,0.269-0.983,0.403-1.672,0.403c-1.177,0-1.872-0.745-2.085-1.29c-0.213-0.545-0.319-1.784-0.319-2.773V68.366
		L125.331,68.366z"/>
	<path fill="#555AA8" d="M116.364,74.592H118V63.578h-1.635V74.592z M117.205,61.215c0.333,0,0.605-0.105,0.818-0.317
		c0.211-0.212,0.318-0.492,0.318-0.84c0-0.334-0.106-0.603-0.318-0.808c-0.212-0.204-0.485-0.306-0.818-0.306
		c-0.333,0-0.606,0.102-0.817,0.306c-0.212,0.205-0.318,0.474-0.318,0.808c0,0.348,0.105,0.628,0.318,0.84
		C116.599,61.11,116.871,61.215,117.205,61.215L117.205,61.215z"/>
	<path fill="#555AA8" d="M110.713,70.924V62.99c0-0.529-0.097-1.027-0.29-1.496c-0.193-0.468-0.458-0.876-0.794-1.225
		c-0.337-0.348-0.732-0.622-1.185-0.821s-0.936-0.3-1.447-0.3h-4.331v15.606h4.331c0.512,0,0.995-0.1,1.447-0.299
		s0.848-0.474,1.185-0.821c0.337-0.349,0.602-0.755,0.794-1.22C110.617,71.951,110.713,71.454,110.713,70.924L110.713,70.924z
		 M109.355,70.924c0,0.348-0.063,0.673-0.19,0.974s-0.3,0.564-0.521,0.789c-0.221,0.225-0.477,0.402-0.768,0.533
		s-0.605,0.196-0.942,0.196h-2.909V60.488h2.909c0.337,0,0.651,0.064,0.942,0.195s0.547,0.311,0.768,0.539
		c0.222,0.229,0.395,0.493,0.521,0.794c0.126,0.302,0.19,0.626,0.19,0.974V70.924z"/>
</g>
</svg>
