<svg xmlns="http://www.w3.org/2000/svg" width="416" height="625" viewBox="0 0 416 625">
    <defs>
        <clipPath id="clip-path">
            <path id="Rectangle_239" fill="#fff" stroke="#707070" d="M0 0H416V625H0z" transform="translate(0 3691)"/>
        </clipPath>
        <style>
            .cls-6{fill-rule:evenodd;fill:#555eb8}
        </style>
    </defs>
    <g id="Mask_Group_15" clip-path="url(#clip-path)" transform="translate(0 -3691)">
        <g id="Group_696" transform="translate(-3160 11291)" style="mix-blend-mode:hard-light;isolation:isolate" opacity="0.42">
            <path id="Shape_1_copy" fill="#c6cbff" fill-rule="evenodd" d="M144 1000.661S385.222 797.337 442.126 390h141.808s-54.472 330.08-239.961 610.661z" transform="translate(2770.723 -7975.416)"/>
            <path id="Shape_1_copy_2" fill="#b8b8b8" fill-rule="evenodd" d="M558.072 1000.661S381.228 817.019 354.518 390h-134.49s-7.157 331.345 174.472 610.661z" transform="translate(2970.947 -7975.416)"/>
            <path id="Path_14" d="M146 726.633S389.966 529.349 698.5 494l69.063 123.586s-236.771 30.395-359.851 109.047z" class="cls-6" transform="translate(2775.993 -7701.388)"/>
            <path id="Shape_1_copy_3" fill="#475ec2" fill-rule="evenodd" d="M558.072 1000.661S381.228 817.019 354.518 390h-134.49s-7.157 331.345 174.472 610.661z" transform="translate(2970.947 -7975.416)"/>
            <path id="Path_15" d="M565.072 1000.661S388.228 817.019 361.518 390h-134.49s-7.157 331.345 174.472 610.661z" class="cls-6" transform="translate(2989.391 -7975.416)"/>
        </g>
    </g>
</svg>
