<svg xmlns="http://www.w3.org/2000/svg" width="565.835" height="444.332" viewBox="0 0 565.835 444.332">
    <defs>
        <filter id="Subtraction_11" width="400.32" height="247.763" x="86.446" y="196.568" filterUnits="userSpaceOnUse">
            <feOffset dx="2" dy="3"/>
            <feGaussianBlur result="blur" stdDeviation="6"/>
            <feFlood flood-color="#606060" flood-opacity=".286"/>
            <feComposite in2="blur" operator="in"/>
            <feComposite in="SourceGraphic"/>
        </filter>
        <filter id="Path_6582" width="109.894" height="156.129" x="0" y="18.392" filterUnits="userSpaceOnUse">
            <feOffset dx="2" dy="3"/>
            <feGaussianBlur result="blur-2" stdDeviation="6"/>
            <feFlood flood-color="#606060" flood-opacity=".286"/>
            <feComposite in2="blur-2" operator="in"/>
            <feComposite in="SourceGraphic"/>
        </filter>
        <filter id="Union_1" width="154.15" height="146.214" x="64.87" y="1.26" filterUnits="userSpaceOnUse">
            <feOffset dx="2" dy="3"/>
            <feGaussianBlur result="blur-3" stdDeviation="6"/>
            <feFlood flood-color="#606060" flood-opacity=".286"/>
            <feComposite in2="blur-3" operator="in"/>
            <feComposite in="SourceGraphic"/>
        </filter>
        <filter id="Subtraction_10" width="393.874" height="177.853" x="171.961" y="0" filterUnits="userSpaceOnUse">
            <feOffset dx="2" dy="3"/>
            <feGaussianBlur result="blur-4" stdDeviation="6"/>
            <feFlood flood-color="#606060" flood-opacity=".286"/>
            <feComposite in2="blur-4" operator="in"/>
            <feComposite in="SourceGraphic"/>
        </filter>
        <filter id="Path_6591" width="46.292" height="48.98" x="199.927" y="53.448" filterUnits="userSpaceOnUse">
            <feOffset dx="2" dy="3"/>
            <feGaussianBlur result="blur-5" stdDeviation="6"/>
            <feFlood flood-color="#606060" flood-opacity=".286"/>
            <feComposite in2="blur-5" operator="in"/>
            <feComposite in="SourceGraphic"/>
        </filter>
        <filter id="Path_6592" width="81.535" height="87.205" x="82.973" y="18.248" filterUnits="userSpaceOnUse">
            <feOffset dx="2" dy="3"/>
            <feGaussianBlur result="blur-6" stdDeviation="6"/>
            <feFlood flood-color="#606060" flood-opacity=".286"/>
            <feComposite in2="blur-6" operator="in"/>
            <feComposite in="SourceGraphic"/>
        </filter>
        <filter id="Path_6593" width="81.535" height="87.206" x="118.241" y="44.7" filterUnits="userSpaceOnUse">
            <feOffset dx="2" dy="3"/>
            <feGaussianBlur result="blur-7" stdDeviation="6"/>
            <feFlood flood-color="#606060" flood-opacity=".286"/>
            <feComposite in2="blur-7" operator="in"/>
            <feComposite in="SourceGraphic"/>
        </filter>
        <filter id="Rectangle_237" width="73.311" height="44.884" x="87.275" y="149.558" filterUnits="userSpaceOnUse">
            <feOffset dx="2" dy="3"/>
            <feGaussianBlur result="blur-8" stdDeviation="6"/>
            <feFlood flood-color="#606060" flood-opacity=".286"/>
            <feComposite in2="blur-8" operator="in"/>
            <feComposite in="SourceGraphic"/>
        </filter>
        <filter id="Rectangle_238" width="73.311" height="44.884" x="410.635" y="149.558" filterUnits="userSpaceOnUse">
            <feOffset dx="2" dy="3"/>
            <feGaussianBlur result="blur-9" stdDeviation="6"/>
            <feFlood flood-color="#606060" flood-opacity=".286"/>
            <feComposite in2="blur-9" operator="in"/>
            <feComposite in="SourceGraphic"/>
        </filter>
        <filter id="WE_WILL" width="280" height="115" x="129.916" y="115.8" filterUnits="userSpaceOnUse">
            <feOffset dx="2" dy="3"/>
            <feGaussianBlur result="blur-10" stdDeviation="6"/>
            <feFlood flood-opacity=".161"/>
            <feComposite in2="blur-10" operator="in"/>
            <feComposite in="SourceGraphic"/>
        </filter>
        <style>
            .cls-1{fill:#555eb8}.cls-3{fill:#e41853}
        </style>
    </defs>
    <g id="Group_693">
        <g filter="url(#Subtraction_11)" transform="translate(-1704.929 7971.928) translate(1704.93 -7971.93)">
            <path id="Subtraction_11-2" d="M51.613 211.763c-6.6 0-11.155-.042-13.548-.124a7.047 7.047 0 0 1-3.809-1.96 9.852 9.852 0 0 1-2.1-3.219 15.216 15.216 0 0 1-1.085-4.338L0 35.59V6.762a8.316 8.316 0 0 1 1.709-4.6C3.268.507 6.265.091 6.3.087h.085C9.635.09 26.537.1 39.739.1c8.436 0 13.685 0 15.604-.013h.06a8.789 8.789 0 0 1 3.975.881 7.829 7.829 0 0 1 2.458 1.939 8.419 8.419 0 0 1 1.6 2.82l5.86 45.584 9.423-45.584a8.35 8.35 0 0 1 1.77-2.827A8.585 8.585 0 0 1 83.182.964a10.292 10.292 0 0 1 4.326-.882c.126 0 .255 0 .384.006a10.487 10.487 0 0 1 4.341.97 6.942 6.942 0 0 1 2.416 1.929 6.242 6.242 0 0 1 1.269 2.741l10.123 45.584c0-.015.007-.09.019-.222.59-6.276 3.6-37.891 4.852-43.964a9.684 9.684 0 0 1 1.713-3.937 8.01 8.01 0 0 1 5.49-3.1C118.864.086 194.489 0 246.258 0c30.367 0 46.644.029 48.378.087a7.189 7.189 0 0 1 5.9 3.1 9.784 9.784 0 0 1 1.641 4.054c.1.787.5 1.14.85 1.14.31 0 .71-.3.815-1.14a8.817 8.817 0 0 1 1.538-3.722 8.536 8.536 0 0 1 2.333-2.169 9.209 9.209 0 0 1 3.068-1.263c.157 0 16.025-.087 28.967-.087 7.607 0 12.739.029 15.254.087a11.882 11.882 0 0 1 5.052 1.125 7.994 7.994 0 0 1 2.8 2.285 7.476 7.476 0 0 1 1.462 3.264v197.946a6.713 6.713 0 0 1-1.037 3.755 6.542 6.542 0 0 1-2.279 2.086 9.249 9.249 0 0 1-3.317 1.091c-.146 0-14.706.053-25.692.053-6.5 0-10.58-.018-12.113-.053-3.805-.088-4.227-.663-6.252-3.425-.756-1.031-1.7-2.314-3.113-3.993a10.77 10.77 0 0 1-1.712 4.148 8.012 8.012 0 0 1-2.37 2.218 7.287 7.287 0 0 1-3.008 1.052c-.518 0-53.513.069-90.516.069-21.675 0-33.612-.023-35.48-.069a5.918 5.918 0 0 1-4.385-1.751 7.137 7.137 0 0 1-1.626-4.687v-68.684a8.947 8.947 0 0 1 .955-4.293 6.132 6.132 0 0 1 2.1-2.268 6.828 6.828 0 0 1 3.056-1.04h4.673c0-.341.075-39.241 0-45.006a17.551 17.551 0 0 1-5.614-1.433 9.363 9.363 0 0 1-3.371-2.582 10.27 10.27 0 0 1-2.071-5.9 33.119 33.119 0 0 1 .309-6.107c.066-.574.128-1.116.175-1.624.167-1.817.036-2.975-.389-3.441a.669.669 0 0 0-.511-.23 2.108 2.108 0 0 0-1.183.63l-.044.247C167 77.276 145.076 198.5 143.658 205.2a7.5 7.5 0 0 1-4.049 5.467 10.122 10.122 0 0 1-4.4.988c-.326 0-.524-.018-.526-.018-.145 0-14.844.1-26.135.1-6.629 0-10.8-.035-12.4-.1a6.1 6.1 0 0 1-3.315-1.1 7.305 7.305 0 0 1-2-2.2 10.358 10.358 0 0 1-1.243-3.137l-2.658-10.138-.019.138c-.367 2.5-.917 6.054-1.548 10a6.934 6.934 0 0 1-4.026 5.486 11.091 11.091 0 0 1-4.521.962c-.244 0-.393-.01-.409-.011-.553.007-13.68.126-24.796.126zm128.992-73.255v42.207h64.309v-42.207h-12.007V50.819h12.007V9.7h-64.309v41.119h10.459v87.689zM301.95 122.14l19.65 58.212h33.47V9.7H312.5v55.67L292.488 9.7H258.65v170.652h43.3V122.14zm-214.494-2.911l10.914 60.395h36.022L166.413 9.7H119.84l-10.916 92.782L87.457 9.7l-21.468 92.786L54.346 9.7H8.137l32.382 169.923h35.294z" class="cls-1" transform="translate(102.45 211.57)"/>
        </g>
        <g filter="url(#Path_6582)" transform="translate(-1704.929 7971.928) translate(1704.93 -7971.93)">
            <path id="Path_6582-2" d="M1773.854-7903.581l12.875 62.694-26.309 6.718-15.114-61.855-13.435 2.8-5.038-26.311 56.257-11.194 3.639 7 4.478-7s-1.12-4.758-8.117-5.317-54.3 10.075-54.3 10.075-8.4 1.119-7.836 8.676 7.836 36.105 7.836 36.105.84 8.4 11.475 6.439c5.038-.842 5.038 0 5.038 0l12.875 53.457s0 5.877 8.117 5.317 24.91-5.317 24.91-5.317 4.758-1.12 3.359-8.4-14.554-71.37-13.994-75.85c-5.317.564-6.716 1.963-6.716 1.963z" class="cls-1" transform="translate(-1704.93 7969.46)"/>
        </g>
        <g filter="url(#Union_1)" transform="translate(-1704.929 7971.928) translate(1704.93 -7971.93)">
            <path id="Union_1-2" d="M36.071 105.88a59.286 59.286 0 0 1-18.78-11.817A54.879 54.879 0 0 1 4.637 76.547a51.88 51.88 0 0 1 0-42.88 54.879 54.879 0 0 1 12.654-17.516 59.286 59.286 0 0 1 18.78-11.817 63.213 63.213 0 0 1 46.008 0 59.286 59.286 0 0 1 18.779 11.817 54.879 54.879 0 0 1 12.654 17.516 51.88 51.88 0 0 1 0 42.88 54.879 54.879 0 0 1-12.654 17.516 59.286 59.286 0 0 1-18.779 11.817 63.213 63.213 0 0 1-46.008 0zm22.563-7.128c25.524 0 46.291-19.184 46.291-42.764a40.945 40.945 0 0 0-12.649-29.344l-54.725 67.41a49.1 49.1 0 0 0 21.083 4.698zm-46.29-42.763a41.1 41.1 0 0 0 13.8 30.435l55.63-67.461a48.947 48.947 0 0 0-23.143-5.738c-25.522 0-46.287 19.184-46.287 42.764z" class="cls-1" transform="translate(80.87 16.26)"/>
        </g>
        <g filter="url(#Subtraction_10)" transform="translate(-1704.929 7971.928) translate(1704.93 -7971.93)">
            <path id="Subtraction_10-2" d="M334 141.853c-3.554 0-14.749-2.277-30.242-5.429H303.73c-31.7-6.448-84.755-17.24-126.156-18.926a8.266 8.266 0 0 1-1.03.066 6.2 6.2 0 0 1-4.713-1.972 7.146 7.146 0 0 1-1.534-5.65c.719-6.474 5.678-54.929 4.273-56.5a.1.1 0 0 0-.075-.039 3.856 3.856 0 0 1-1.537-.674h-.008a5.5 5.5 0 0 0-2.5-.984c-1.576 0-2.451 2.008-2.675 6.14-.1 1.841-.119 4.718-.143 8.359v.07c-.056 8.478-.132 20.089-1.259 30.064a60.466 60.466 0 0 1-2.603 12.922 15.5 15.5 0 0 1-2.133 4.2 5.179 5.179 0 0 1-2.816 2.028 51.058 51.058 0 0 1-11.714 1.119 124.781 124.781 0 0 1-15.715-1.119 3.389 3.389 0 0 1-1.644-1.3c-.734-.989-1.579-2.926-1.435-6.541.256-6.4 2.6-48.026 3.066-56.306l.013-.232h-5.982v6.717l-8.11 7.167h.02c.388-.036.751-.044.988-.044 1.407 0 4.012.25 5.647 1.923a5.652 5.652 0 0 1 1.46 4.253c-.151 6.484-1.23 33.342-1.444 38.66v.114a8.555 8.555 0 0 1-1.3 2.732 6.945 6.945 0 0 1-2.037 1.916 6.761 6.761 0 0 1-3.33.95c-1.593.052-9.905.079-24.706.079-23.083 0-55.051-.065-61.225-.079H31.3a74.883 74.883 0 0 1-12.67-4.838 56.063 56.063 0 0 1-10.387-6.471A31.453 31.453 0 0 1 0 94.678 77.287 77.287 0 0 0 9.274 80.6a53.29 53.29 0 0 0 7.888 6.914c4.4 3.173 11.172 6.992 18.445 7.163 1.7.039 3.506.06 5.354.06 12.182 0 24.592-.852 25.115-.888l-.99-42.691-23.186.874 1.325 21.034h-.005a35.129 35.129 0 0 1-12.188-2.631 20.959 20.959 0 0 1-8.418-6.244 19.526 19.526 0 0 1-3.9-12.16 18.314 18.314 0 0 1 3.747-10.358 28.055 28.055 0 0 1 7.6-6.8 43.75 43.75 0 0 1 10.848-4.864L38.92 8.808c-.432.05-10.695 1.252-18.549 4.968A48.205 48.205 0 0 0 6.625 24.087l-4.638-6.294.006-.006A78.447 78.447 0 0 1 13.279 9.75a66.421 66.421 0 0 1 11.7-5.53 41.289 41.289 0 0 1 13.579-2.514 30.4 30.4 0 0 1 4.667.354c1.587.49 2.914 2.981 3.944 7.4a96.593 96.593 0 0 1 1.894 14.189c.742 10.072.623 19.883.621 19.978h15.4L63.71 7.76a5.868 5.868 0 0 1 .917-4.181c1.093-1.57 3.014-2.563 5.708-2.954C72.123.366 81.822 0 97.788 0c20.119 0 60.87.6 107.745 4.591 23.488 2 45.654 4.626 65.883 7.8a551.777 551.777 0 0 1 62.964 13.3 29.309 29.309 0 0 1 16.065 10.65 33.521 33.521 0 0 1 4.5 8.125 42.372 42.372 0 0 1 2.4 9.212 54.828 54.828 0 0 1-2.513 25.5c-2.856 8.213-7.36 14.562-12.682 17.879 1.2 12.889 2.314 35.569-3.759 42.652a5.638 5.638 0 0 1-4.008 2.13c-.127.011-.255.014-.383.014zm-18.814-58.48v32.717l21.313 5.168v-.006c-.015-.184-1.548-18.667-3.014-39.824a23.784 23.784 0 0 0 10.682-6 19.718 19.718 0 0 0 5.085-9.1 27.276 27.276 0 0 0-.648-14.822 30.88 30.88 0 0 0-7.579-12.706 35.544 35.544 0 0 0-10.925-6.9 76.464 76.464 0 0 0-12.7-4.054 108.263 108.263 0 0 0-14.9-2.395h-.011l-.039.212-.466 2.556-.1.561c-10.035 55.02-13.638 74.8-14.894 81.714a163.1 163.1 0 0 1 18.4 4.149 12.527 12.527 0 0 1 3.565 1.447zM247.923 18.2l-10.764 84.463 43.059 7.121 3.312-21.53-22.192-3.312 1.822-9.773L289 56.791l-22.689-4.14 2.484-10.764 22.854 3.975L294.793 24zm-41.7 47.778a.863.863 0 0 1 .644.323c.7.775 1.146 2.965 1.321 6.507.14 2.835.109 6.536-.092 11-.343 7.634-1.069 14.887-1.076 14.96l21.2 2.153 10.93-85.788-23.683-1.159v.041c-.137 1.392-.872 8.7-1.941 15.938-.685 4.639-1.371 8.335-2.038 10.986-.834 3.314-1.642 4.994-2.4 5a.648.648 0 0 1-.407-.163c-.793-.642-1.287-2.765-1.467-6.311a109.963 109.963 0 0 1 .163-11.14c.425-7.667 1.269-15.03 1.3-15.34l-23.352-2.816-6.625 86.453 22.357 1.159v-.038c.047-1.377.319-8.608 1.014-15.8a92.859 92.859 0 0 1 1.571-10.923c.747-3.305 1.6-5 2.549-5.038zM138.2 8.147c-7.934 0-13.982.2-14.034.2v20.87h14.408L136.093 95.3h22.192l3.974-65.085 14.408.994 1.159-21.033c-.117-.012-13.366-1.371-26.664-1.822-3.951-.139-8.311-.207-12.962-.207zm-66.352-.723l1.6 86.134h43.888l.994-21.861H94.649V60.6l22.689-20.37H94.649V29.3h21.53V7.424H71.848zm249 55.565a9.558 9.558 0 0 1-1.457-.106h-.006l2.549-11.365h.006a8.508 8.508 0 0 1 2.737 1.469 5.816 5.816 0 0 1 2.156 5.585c-.548 3.843-3.985 4.417-5.985 4.417z" class="cls-1" transform="translate(187.96 15)"/>
        </g>
        <g filter="url(#Path_6591)" transform="translate(-1704.929 7971.928) translate(1704.93 -7971.93)">
            <path id="Path_6591-2" fill="#fff" d="M4.9 11.367L7.448 0 0 4.311z" transform="rotate(-16 358.782 -732.96)"/>
        </g>
        <g filter="url(#Path_6592)" transform="translate(-1704.929 7971.928) translate(1704.93 -7971.93)">
            <path id="Path_6592-2" d="M1860.148-7918l-24.854 29.575-.543-1.988h-3.6a8.519 8.519 0 0 1-8.756 5.334c-6.552-.638-7.422-5.508-7.364-9.393s7.48-11.365 14.96-3.306c4.349-1.044 6.611-7.248 4.755-9.277s-9.509 1.726-12.351-3.9-1.276-12.96 7.6-12.5 8.06 8.64 8.06 8.64 4.233 3.246 8.06-.58 3.537-4.276-.348-6.77-3.885-12.365 3.943-13.872 15.308 5.6 7.654 13.872a3.794 3.794 0 0 0 0 3.059c.675.987 2.784 1.106 2.784 1.106z" class="cls-3" transform="translate(-1716.06 7969.48)"/>
        </g>
        <g filter="url(#Path_6593)" transform="translate(-1704.929 7971.928) translate(1704.93 -7971.93)">
            <path id="Path_6593-2" d="M1815.45-7903.262l24.855-29.574.543 1.988h3.6a8.522 8.522 0 0 1 8.756-5.336c6.552.638 7.423 5.51 7.364 9.395s-7.48 11.365-14.96 3.306c-4.349 1.043-6.61 7.249-4.755 9.277s9.509-1.727 12.351 3.9 1.276 12.961-7.6 12.5-8.06-8.641-8.06-8.641-4.233-3.246-8.06.581-3.537 4.274.348 6.771 3.885 12.364-3.943 13.871-15.308-5.595-7.654-13.871a3.8 3.8 0 0 0 0-3.061c-.676-.982-2.785-1.106-2.785-1.106z" class="cls-3" transform="translate(-1680.79 7995.93)"/>
        </g>
        <g filter="url(#Rectangle_237)" transform="translate(-1704.929 7971.928) translate(1704.93 -7971.93)">
            <path id="Rectangle_237-2" d="M0 0H37.311V8.884H0z" class="cls-3" transform="translate(103.28 164.56)"/>
        </g>
        <g filter="url(#Rectangle_238)" transform="translate(-1704.929 7971.928) translate(1704.93 -7971.93)">
            <path id="Rectangle_238-2" d="M0 0H37.311V8.884H0z" class="cls-3" transform="translate(426.63 164.56)"/>
        </g>
        <g filter="url(#WE_WILL)" transform="translate(-1704.929 7971.928) translate(1704.93 -7971.93)">
            <text id="WE_WILL-2" fill="#555eb8" font-family="Poppins-Bold, Poppins" font-size="56px" font-weight="700" letter-spacing="0.041em" transform="translate(145.92 189.8)">
                <tspan x="0" y="0">WE WILL</tspan>
            </text>
        </g>
    </g>
</svg>
